<svg width="217" height="60" viewBox="0 0 217 60" fill="none" xmlns="http://www.w3.org/2000/svg">
<g clip-path="url(#clip0_445_4836)">
<path d="M208.462 59.674H7.57174C3.39759 59.674 0 56.4993 0 52.613V7.05048C0 3.16272 3.39759 0 7.57174 0H208.462C212.635 0 216.152 3.16272 216.152 7.05048V52.613C216.152 56.4993 212.635 59.674 208.462 59.674Z" fill="#A6A6A6"/>
<path d="M214.602 52.6144C214.602 55.7712 211.858 58.3282 208.464 58.3282H7.57172C4.17893 58.3282 1.42499 55.7712 1.42499 52.6144V7.04888C1.42499 3.89362 4.17893 1.32764 7.57172 1.32764H208.462C211.858 1.32764 214.601 3.89362 214.601 7.04888L214.602 52.6144Z" fill="black"/>
<path d="M48.2387 29.5143C48.1923 24.7061 52.4641 22.3669 52.6594 22.258C50.2401 18.9714 46.4903 18.5224 45.1725 18.4866C42.0231 18.1777 38.9682 20.2425 37.3638 20.2425C35.7275 20.2425 33.2569 18.5164 30.5943 18.5671C27.1678 18.6164 23.9624 20.4648 22.2044 23.3351C18.5762 29.1876 21.2821 37.7881 24.7582 42.5188C26.497 44.8356 28.5288 47.4225 31.1883 47.3315C33.7901 47.2315 34.762 45.7859 37.9018 45.7859C41.0128 45.7859 41.9254 47.3315 44.6378 47.2733C47.4301 47.2315 49.1882 44.946 50.8661 42.6083C52.8756 39.9528 53.6825 37.3376 53.7146 37.2033C53.6489 37.1824 48.2915 35.2773 48.2387 29.5143Z" fill="white"/>
<path d="M43.115 15.3751C44.5143 13.7445 45.4718 11.5261 45.206 9.2749C43.1806 9.35845 40.6476 10.5803 39.189 12.1751C37.8985 13.5804 36.7457 15.8838 37.0435 18.05C39.3187 18.2081 41.6547 16.9803 43.115 15.3751Z" fill="white"/>
<path d="M85.8926 46.9995H82.2564L80.2646 41.1679H73.3414L71.444 46.9995H67.9039L74.7632 27.146H78.9998L85.8926 46.9995ZM79.6642 38.7213L77.863 33.5371C77.6724 33.0075 77.3154 31.7603 76.7886 29.797H76.7245C76.5148 30.6414 76.177 31.8886 75.7126 33.5371L73.9434 38.7213H79.6642Z" fill="white"/>
<path d="M103.532 39.6652C103.532 42.0998 102.826 44.0243 101.414 45.4371C100.149 46.6947 98.5783 47.3228 96.7034 47.3228C94.6796 47.3228 93.2258 46.6455 92.3403 45.2909H92.2763V52.8322H88.8627V37.396C88.8627 35.8654 88.8195 34.2945 88.7362 32.6833H91.7383L91.9289 34.9524H91.9929C93.1313 33.2427 94.8589 32.3894 97.1774 32.3894C98.9898 32.3894 100.503 33.0563 101.713 34.3915C102.927 35.7282 103.532 37.4856 103.532 39.6652ZM100.055 39.7815C100.055 38.3881 99.7183 37.2394 99.0427 36.3353C98.3046 35.3925 97.3134 34.9211 96.071 34.9211C95.2288 34.9211 94.4634 35.1836 93.7798 35.7013C93.0945 36.2235 92.6462 36.9052 92.4364 37.7496C92.3307 38.1435 92.2779 38.4657 92.2779 38.7193V41.1063C92.2779 42.1476 92.6205 43.0263 93.3058 43.7439C93.9911 44.4614 94.8813 44.8195 95.9765 44.8195C97.2622 44.8195 98.2629 44.357 98.9786 43.4351C99.6959 42.5116 100.055 41.2943 100.055 39.7815Z" fill="white"/>
<path d="M121.204 39.6652C121.204 42.0998 120.498 44.0243 119.084 45.4371C117.821 46.6947 116.25 47.3228 114.375 47.3228C112.351 47.3228 110.897 46.6455 110.014 45.2909H109.949V52.8322H106.536V37.396C106.536 35.8654 106.493 34.2945 106.409 32.6833H109.411L109.602 34.9524H109.666C110.803 33.2427 112.53 32.3894 114.851 32.3894C116.661 32.3894 118.174 33.0563 119.388 34.3915C120.597 35.7282 121.204 37.4856 121.204 39.6652ZM117.726 39.7815C117.726 38.3881 117.388 37.2394 116.713 36.3353C115.975 35.3925 114.987 34.9211 113.743 34.9211C112.899 34.9211 112.135 35.1836 111.45 35.7013C110.764 36.2235 110.318 36.9052 110.108 37.7496C110.004 38.1435 109.949 38.4657 109.949 38.7193V41.1063C109.949 42.1476 110.292 43.0263 110.974 43.7439C111.659 44.46 112.55 44.8195 113.648 44.8195C114.934 44.8195 115.934 44.357 116.65 43.4351C117.367 42.5116 117.726 41.2943 117.726 39.7815Z" fill="white"/>
<path d="M140.962 41.4314C140.962 43.1201 140.333 44.4941 139.069 45.5548C137.681 46.714 135.749 47.2928 133.265 47.2928C130.972 47.2928 129.134 46.8811 127.743 46.0561L128.534 43.4051C130.033 44.2495 131.677 44.6731 133.469 44.6731C134.754 44.6731 135.755 44.4016 136.474 43.8616C137.19 43.3215 137.547 42.5965 137.547 41.6924C137.547 40.8868 137.252 40.208 136.661 39.6575C136.074 39.1071 135.092 38.5953 133.722 38.1224C129.991 36.826 128.127 34.9269 128.127 32.4295C128.127 30.7975 128.78 29.4593 130.089 28.418C131.392 27.3751 133.131 26.8545 135.305 26.8545C137.244 26.8545 138.855 27.1693 140.14 27.7973L139.287 30.3902C138.086 29.7815 136.728 29.4772 135.209 29.4772C134.008 29.4772 133.07 29.7532 132.397 30.3022C131.829 30.793 131.544 31.3912 131.544 32.0998C131.544 32.8845 131.869 33.5335 132.522 34.0437C133.091 34.5151 134.123 35.0254 135.622 35.5758C137.455 36.2636 138.802 37.0677 139.668 37.9897C140.531 38.9086 140.962 40.0588 140.962 41.4314Z" fill="white"/>
<path d="M152.248 35.0707H148.485V42.0212C148.485 43.789 149.148 44.6722 150.477 44.6722C151.087 44.6722 151.593 44.623 151.994 44.5245L152.088 46.9398C151.416 47.174 150.53 47.2919 149.433 47.2919C148.085 47.2919 147.032 46.9085 146.271 46.1432C145.514 45.3764 145.133 44.0904 145.133 42.2838V35.0677H142.891V32.6807H145.133V30.0595L148.485 29.1167V32.6807H152.248V35.0707Z" fill="white"/>
<path d="M169.225 39.7231C169.225 41.9235 168.549 43.7302 167.201 45.143C165.787 46.5975 163.911 47.3225 161.571 47.3225C159.317 47.3225 157.522 46.6258 156.184 45.2325C154.845 43.8391 154.176 42.0802 154.176 39.9603C154.176 37.7419 154.864 35.9248 156.246 34.512C157.625 33.0978 159.485 32.3906 161.824 32.3906C164.079 32.3906 165.893 33.0873 167.262 34.4822C168.572 35.8353 169.225 37.5823 169.225 39.7231ZM165.683 39.826C165.683 38.5057 165.381 37.3734 164.767 36.4291C164.052 35.2863 163.028 34.7164 161.703 34.7164C160.331 34.7164 159.288 35.2878 158.573 36.4291C157.959 37.3749 157.657 38.5251 157.657 39.8857C157.657 41.206 157.959 42.3383 158.573 43.2811C159.311 44.4239 160.342 44.9938 161.672 44.9938C162.976 44.9938 163.999 44.4119 164.737 43.2513C165.366 42.289 165.683 41.1448 165.683 39.826Z" fill="white"/>
<path d="M180.321 35.4805C179.983 35.4223 179.623 35.3925 179.245 35.3925C178.044 35.3925 177.115 35.8147 176.462 36.6606C175.894 37.4065 175.609 38.3493 175.609 39.4876V46.9991H172.197L172.229 37.1917C172.229 35.5417 172.185 34.0394 172.1 32.6848H175.074L175.199 35.4238H175.293C175.653 34.4825 176.222 33.7246 177 33.1562C177.76 32.6445 178.582 32.3894 179.467 32.3894C179.783 32.3894 180.068 32.4103 180.321 32.4476V35.4805Z" fill="white"/>
<path d="M195.587 39.1636C195.587 39.7335 195.547 40.2139 195.463 40.6063H185.222C185.262 42.0205 185.756 43.1021 186.708 43.8481C187.571 44.5149 188.687 44.8491 190.057 44.8491C191.573 44.8491 192.957 44.6238 194.201 44.1718L194.736 46.3797C193.282 46.9705 191.565 47.2644 189.585 47.2644C187.202 47.2644 185.332 46.611 183.971 45.3056C182.613 44.0002 181.933 42.2473 181.933 40.0483C181.933 37.8896 182.565 36.0919 183.832 34.6583C185.158 33.1276 186.949 32.3623 189.204 32.3623C191.418 32.3623 193.094 33.1276 194.233 34.6583C195.134 35.8741 195.587 37.3779 195.587 39.1636ZM192.332 38.3386C192.355 37.3958 192.132 36.5813 191.669 35.8935C191.079 35.0088 190.171 34.5673 188.949 34.5673C187.833 34.5673 186.925 34.9984 186.232 35.8637C185.664 36.5514 185.326 37.3764 185.222 38.3372L192.332 38.3386Z" fill="white"/>
<path d="M78.5354 14.9319C78.5354 16.6878 77.9702 18.0095 76.8414 18.8972C75.7958 19.7162 74.31 20.1265 72.3854 20.1265C71.4312 20.1265 70.6146 20.0877 69.9309 20.0101V10.416C70.8227 10.2818 71.7834 10.2131 72.8209 10.2131C74.6542 10.2131 76.036 10.5846 76.9679 11.3275C78.0118 12.1675 78.5354 13.3684 78.5354 14.9319ZM76.7661 14.9751C76.7661 13.8368 76.4427 12.9641 75.7958 12.3554C75.149 11.7482 74.2043 11.4439 72.9602 11.4439C72.4319 11.4439 71.982 11.4767 71.6089 11.5454V18.839C71.8154 18.8688 72.1933 18.8823 72.7425 18.8823C74.0266 18.8823 75.0177 18.5496 75.7158 17.8842C76.4139 17.2189 76.7661 16.2492 76.7661 14.9751Z" fill="white"/>
<path d="M87.9163 16.4653C87.9163 17.5469 87.5849 18.4331 86.922 19.1283C86.2271 19.8429 85.3065 20.1994 84.1569 20.1994C83.0489 20.1994 82.1667 19.8578 81.5086 19.1716C80.8522 18.4868 80.5239 17.623 80.5239 16.5817C80.5239 15.4927 80.8618 14.599 81.5406 13.9053C82.2195 13.2116 83.1322 12.864 84.2818 12.864C85.3898 12.864 86.28 13.2056 86.9541 13.8904C87.5945 14.5558 87.9163 15.4151 87.9163 16.4653ZM86.1759 16.5161C86.1759 15.8671 86.0254 15.3106 85.726 14.8467C85.3737 14.2857 84.8726 14.0053 84.2209 14.0053C83.5469 14.0053 83.0345 14.2857 82.6822 14.8467C82.3812 15.3106 82.2323 15.8761 82.2323 16.5444C82.2323 17.1934 82.3828 17.7498 82.6822 18.2138C83.0457 18.7747 83.5517 19.0552 84.2049 19.0552C84.8454 19.0552 85.3481 18.7702 85.71 18.1989C86.0206 17.7259 86.1759 17.165 86.1759 16.5161Z" fill="white"/>
<path d="M100.495 13.0073L98.1332 20.0399H96.5962L95.6179 16.9861C95.3697 16.2238 95.168 15.4659 95.011 14.714H94.9806C94.8349 15.4868 94.6332 16.2431 94.3738 16.9861L93.3347 20.0399H91.78L89.5592 13.0073H91.2836L92.137 16.3506C92.3436 17.1412 92.5133 17.8946 92.6494 18.6077H92.6798C92.8047 18.0199 93.0112 17.271 93.3026 16.3655L94.3738 13.0088H95.7412L96.7675 16.2939C97.0157 17.095 97.2174 17.8663 97.3727 18.6092H97.4191C97.5328 17.8857 97.7041 17.1144 97.9315 16.2939L98.8473 13.0088H100.495V13.0073Z" fill="white"/>
<path d="M109.194 20.0396H107.516V16.0117C107.516 14.7704 107.01 14.1498 105.995 14.1498C105.497 14.1498 105.095 14.3199 104.783 14.6615C104.474 15.0032 104.317 15.406 104.317 15.8669V20.0382H102.639V15.0166C102.639 14.399 102.618 13.7291 102.578 13.0041H104.053L104.131 14.1036H104.178C104.373 13.7619 104.664 13.48 105.047 13.2547C105.502 12.9922 106.011 12.8594 106.568 12.8594C107.273 12.8594 107.859 13.0712 108.324 13.4964C108.904 14.017 109.194 14.7943 109.194 15.8267V20.0396Z" fill="white"/>
<path d="M113.821 20.0397H112.145V9.78027H113.821V20.0397Z" fill="white"/>
<path d="M123.7 16.4653C123.7 17.5469 123.368 18.4331 122.706 19.1283C122.011 19.8429 121.088 20.1994 119.94 20.1994C118.831 20.1994 117.949 19.8578 117.292 19.1716C116.636 18.4868 116.307 17.623 116.307 16.5817C116.307 15.4927 116.645 14.599 117.324 13.9053C118.003 13.2116 118.916 12.864 120.064 12.864C121.173 12.864 122.062 13.2056 122.738 13.8904C123.378 14.5558 123.7 15.4151 123.7 16.4653ZM121.958 16.5161C121.958 15.8671 121.807 15.3106 121.508 14.8467C121.157 14.2857 120.655 14.0053 120.004 14.0053C119.329 14.0053 118.816 14.2857 118.466 14.8467C118.165 15.3106 118.016 15.8761 118.016 16.5444C118.016 17.1934 118.166 17.7498 118.466 18.2138C118.829 18.7747 119.335 19.0552 119.988 19.0552C120.629 19.0552 121.13 18.7702 121.492 18.1989C121.804 17.7259 121.958 17.165 121.958 16.5161Z" fill="white"/>
<path d="M131.821 20.0398H130.314L130.189 19.2297H130.143C129.627 19.8757 128.892 20.1994 127.938 20.1994C127.226 20.1994 126.649 19.9861 126.215 19.5624C125.822 19.1775 125.625 18.6986 125.625 18.1302C125.625 17.2709 126.009 16.616 126.782 16.1625C127.554 15.709 128.64 15.4867 130.037 15.4971V15.3658C130.037 14.4394 129.515 13.9769 128.47 13.9769C127.725 13.9769 127.069 14.1515 126.502 14.4976L126.161 13.4712C126.862 13.0669 127.728 12.864 128.75 12.864C130.723 12.864 131.712 13.8337 131.712 15.7731V18.363C131.712 19.0656 131.749 19.6251 131.821 20.0398ZM130.079 17.623V16.5384C128.228 16.5086 127.303 16.9815 127.303 17.9557C127.303 18.3227 127.408 18.5972 127.624 18.7807C127.841 18.9642 128.116 19.0552 128.444 19.0552C128.812 19.0552 129.157 18.9463 129.47 18.73C129.786 18.5122 129.98 18.2362 130.052 17.8975C130.069 17.8214 130.079 17.7289 130.079 17.623Z" fill="white"/>
<path d="M141.356 20.0397H139.867L139.788 18.9104H139.742C139.266 19.7697 138.456 20.1993 137.318 20.1993C136.408 20.1993 135.651 19.8667 135.051 19.2013C134.45 18.5359 134.151 17.6722 134.151 16.6114C134.151 15.4732 134.476 14.5512 135.129 13.8471C135.761 13.1906 136.536 12.8624 137.459 12.8624C138.472 12.8624 139.181 13.1802 139.585 13.8172H139.617V9.78027H141.297V18.1451C141.297 18.8298 141.316 19.4609 141.356 20.0397ZM139.617 17.0739V15.9013C139.617 15.6984 139.601 15.5343 139.571 15.409C139.476 15.0331 139.273 14.7168 138.964 14.4617C138.651 14.2066 138.275 14.0783 137.841 14.0783C137.215 14.0783 136.725 14.3095 136.365 14.7735C136.008 15.2375 135.827 15.8297 135.827 16.5533C135.827 17.2485 135.998 17.8124 136.343 18.2465C136.706 18.709 137.196 18.9402 137.809 18.9402C138.36 18.9402 138.8 18.7478 139.135 18.3614C139.458 18.0048 139.617 17.5752 139.617 17.0739Z" fill="white"/>
<path d="M155.707 16.4653C155.707 17.5469 155.375 18.4331 154.712 19.1283C154.017 19.8429 153.098 20.1994 151.947 20.1994C150.841 20.1994 149.959 19.8578 149.299 19.1716C148.642 18.4868 148.314 17.623 148.314 16.5817C148.314 15.4927 148.652 14.599 149.331 13.9053C150.01 13.2116 150.922 12.864 152.074 12.864C153.18 12.864 154.072 13.2056 154.744 13.8904C155.385 14.5558 155.707 15.4151 155.707 16.4653ZM153.968 16.5161C153.968 15.8671 153.817 15.3106 153.518 14.8467C153.164 14.2857 152.664 14.0053 152.011 14.0053C151.339 14.0053 150.826 14.2857 150.473 14.8467C150.172 15.3106 150.023 15.8761 150.023 16.5444C150.023 17.1934 150.173 17.7498 150.473 18.2138C150.836 18.7747 151.342 19.0552 151.995 19.0552C152.636 19.0552 153.14 18.7702 153.502 18.1989C153.811 17.7259 153.968 17.165 153.968 16.5161Z" fill="white"/>
<path d="M164.729 20.0396H163.053V16.0117C163.053 14.7704 162.547 14.1498 161.53 14.1498C161.032 14.1498 160.63 14.3199 160.32 14.6615C160.009 15.0032 159.854 15.406 159.854 15.8669V20.0382H158.174V15.0166C158.174 14.399 158.155 13.7291 158.115 13.0041H159.588L159.666 14.1036H159.713C159.91 13.7619 160.201 13.48 160.582 13.2547C161.038 12.9922 161.546 12.8594 162.105 12.8594C162.808 12.8594 163.394 13.0712 163.86 13.4964C164.441 14.017 164.729 14.7943 164.729 15.8267V20.0396Z" fill="white"/>
<path d="M176.022 14.1781H174.174V17.5945C174.174 18.4627 174.502 18.8969 175.152 18.8969C175.453 18.8969 175.703 18.873 175.9 18.8238L175.943 20.0098C175.612 20.1261 175.176 20.1843 174.64 20.1843C173.977 20.1843 173.461 19.9964 173.088 19.6204C172.714 19.2445 172.528 18.6119 172.528 17.7243V14.1781H171.425V13.007H172.528V11.7181L174.172 11.2556V13.0056H176.02L176.022 14.1781Z" fill="white"/>
<path d="M184.905 20.0397H183.225V16.0416C183.225 14.781 182.719 14.1499 181.706 14.1499C180.928 14.1499 180.396 14.5154 180.105 15.2464C180.055 15.4001 180.026 15.588 180.026 15.8088V20.0382H178.35V9.78027H180.026V14.0186H180.058C180.587 13.2473 181.344 12.8624 182.325 12.8624C183.02 12.8624 183.595 13.0743 184.051 13.4995C184.62 14.0291 184.905 14.8168 184.905 15.8581V20.0397Z" fill="white"/>
<path d="M194.068 16.1908C194.068 16.4713 194.046 16.707 194.005 16.8995H188.973C188.996 17.5947 189.236 18.1243 189.702 18.4913C190.128 18.8195 190.677 18.9836 191.349 18.9836C192.094 18.9836 192.773 18.8732 193.384 18.6509L193.647 19.737C192.931 20.0264 192.089 20.1711 191.114 20.1711C189.945 20.1711 189.024 19.8503 188.358 19.2088C187.689 18.5674 187.358 17.7066 187.358 16.6265C187.358 15.5658 187.667 14.6826 188.289 13.9784C188.94 13.2265 189.819 12.8506 190.928 12.8506C192.014 12.8506 192.838 13.2265 193.395 13.9784C193.845 14.5752 194.068 15.3136 194.068 16.1908ZM192.467 15.7865C192.48 15.3226 192.369 14.9228 192.142 14.5856C191.85 14.1515 191.407 13.9337 190.806 13.9337C190.259 13.9337 189.812 14.1455 189.471 14.5707C189.192 14.9093 189.028 15.3136 188.973 15.7865H192.467Z" fill="white"/>
</g>
<defs>
<clipPath id="clip0_445_4836">
<rect width="216.152" height="59.674" fill="white"/>
</clipPath>
</defs>
</svg>
