<svg width="18" height="14" viewBox="0 0 18 14" fill="none" xmlns="http://www.w3.org/2000/svg">
<path d="M13.0312 3.71005C12.8403 3.90103 12.8334 4.20577 13.0097 4.4055H16.0076C16.1838 4.20574 16.177 3.90103 15.9861 3.71005C15.7874 3.51143 15.4654 3.51143 15.2668 3.71005L15.0172 3.95965V1.91563C15.0172 0.859354 14.1579 0 13.1016 0C12.0453 0 11.186 0.859354 11.186 1.91563C11.186 2.1965 11.4137 2.4242 11.6945 2.4242C11.9754 2.4242 12.2031 2.1965 12.2031 1.91563C12.2031 1.42021 12.6062 1.01715 13.1016 1.01715C13.597 1.01715 14.0001 1.42021 14.0001 1.91563V3.95965L13.7505 3.71005C13.5519 3.51143 13.2298 3.51143 13.0312 3.71005Z" fill="#AAAAAA"/>
<path d="M0.508505 5.42264C0.227637 5.42264 0 5.65038 0 5.93125C0 6.21211 0.227706 6.43982 0.508574 6.43982H0.69522C0.943167 7.36921 1.2043 8.35163 1.49002 9.43011C1.81042 10.6392 2.64807 11.5686 3.7353 12.0144L3.26416 12.5952C3.08721 12.8134 3.12061 13.1336 3.33875 13.3106C3.43294 13.387 3.54625 13.4242 3.65881 13.4242C3.8068 13.4242 3.95355 13.3599 4.05407 13.236L4.82572 12.2847C4.95747 12.2978 5.09092 12.3053 5.22623 12.3053H12.1319C12.266 12.3053 12.3982 12.2979 12.5287 12.2851L13.3 13.2359C13.4005 13.3598 13.5473 13.4242 13.6953 13.4242C13.8078 13.4242 13.9211 13.387 14.0153 13.3105C14.2334 13.1336 14.2669 12.8133 14.0899 12.5952L13.6198 12.0156C14.7081 11.5704 15.5469 10.6408 15.8678 9.43123C16.1323 8.43423 16.3962 7.43706 16.6597 6.43978H16.851C17.1319 6.43978 17.3596 6.21208 17.3596 5.93121C17.3596 5.65035 17.1319 5.42264 16.851 5.42264H0.508505Z" fill="#AAAAAA"/>
</svg>
