<svg width="18" height="15" viewBox="0 0 18 15" fill="none" xmlns="http://www.w3.org/2000/svg">
<path d="M14.3359 3.36621V4.33194H15.1535C15.313 4.33194 15.4688 4.34815 15.6194 4.37877V1.22772C15.6194 0.549677 15.0697 0 14.3917 0H2.96788C2.28987 0 1.74019 0.549677 1.74019 1.22772V4.37877C1.8908 4.34812 2.04656 4.33194 2.20606 4.33194H3.02369V3.36621C3.02369 2.71512 3.55339 2.18542 4.20448 2.18542H7.10551C7.7566 2.18542 8.2863 2.71512 8.2863 3.36621V4.33194H9.07329V3.36621C9.07329 2.71512 9.60299 2.18542 10.2541 2.18542H13.1551C13.8062 2.18542 14.3359 2.71512 14.3359 3.36621Z" fill="#AAAAAA"/>
<path d="M13.1551 3.21279C13.2398 3.21279 13.3086 3.28152 13.3086 3.36628V4.34205H10.1006V3.36625C10.1006 3.28148 10.1693 3.21279 10.2541 3.21279H13.1551Z" fill="#AAAAAA"/>
<path d="M7.10555 3.21279C7.19031 3.21279 7.25904 3.28152 7.25904 3.36628V4.34205H4.05107V3.36628C4.05107 3.28152 4.11976 3.21283 4.20453 3.21283L7.10555 3.21279Z" fill="#AAAAAA"/>
<path d="M0.636509 7.51586H16.7231C17.0746 7.51586 17.3596 7.80083 17.3596 8.15237V12.3243C17.3596 12.6758 17.0746 12.9608 16.7231 12.9608H0.636509C0.284976 12.9608 0 12.6758 0 12.3243V8.15237C0 7.80083 0.284976 7.51586 0.636509 7.51586Z" fill="#AAAAAA"/>
<path d="M15.1536 5.35927H2.20613C1.54484 5.35927 0.998687 5.8509 0.912365 6.48853H16.4474C16.361 5.8509 15.8149 5.35927 15.1536 5.35927Z" fill="#AAAAAA"/>
<path d="M16.7235 13.9881V14.3274C16.7235 14.6111 16.4935 14.8411 16.2098 14.8411C15.9261 14.8411 15.6962 14.6111 15.6962 14.3274V13.9881L16.7235 13.9881Z" fill="#AAAAAA"/>
<path d="M1.66349 14.3274V13.9881L0.636524 13.988L0.636151 14.3274C0.636151 14.6111 0.866133 14.8411 1.14982 14.8411C1.43351 14.8411 1.66349 14.6111 1.66349 14.3274Z" fill="#AAAAAA"/>
</svg>
