<svg width="144" height="144" viewBox="0 0 144 144" fill="none" xmlns="http://www.w3.org/2000/svg">
<mask id="mask0_55_227" style="mask-type:alpha" maskUnits="userSpaceOnUse" x="0" y="0" width="144" height="144">
<rect width="144" height="144" fill="#CE0E2D"/>
</mask>
<g mask="url(#mask0_55_227)">
<rect width="144" height="144" fill="#CE0E2D"/>
<path fill-rule="evenodd" clip-rule="evenodd" d="M68.6875 33.9203H62.9048V39.177H68.6875V33.9203ZM24.8139 58.3843V51.2382H34.5422V46.0443H24.8139V39.1004H36.8734V33.9204H18.885V63.5643H37.5067V58.3843H24.8139ZM53.7898 33.9205V43.6949C53.5462 43.4439 53.2748 43.2139 52.9687 42.9977C52.4815 42.6492 51.8344 42.3285 51.048 42.0426C50.2547 41.7498 49.2527 41.6034 48.0836 41.6034C46.664 41.6034 45.3418 41.8753 44.1519 42.4121C42.9619 42.9489 41.9181 43.7158 41.0622 44.6849C40.2063 45.654 39.5382 46.8531 39.0581 48.2335C38.5849 49.6139 38.3413 51.1617 38.3413 52.8349C38.3413 54.4663 38.564 55.9861 39.0024 57.3526C39.4408 58.719 40.088 59.9182 40.9161 60.9082C41.7442 61.9051 42.7601 62.686 43.9362 63.2367C45.1122 63.7875 46.4344 64.0664 47.8818 64.0664C49.0996 64.0664 50.1573 63.8712 51.0272 63.4877C51.8831 63.1112 52.5929 62.679 53.1287 62.2119C53.4766 61.9121 53.7898 61.5844 54.0612 61.2358V61.5286V63.5714H59.6073V33.9205H53.7898ZM53.9498 52.793C53.9498 53.9085 53.8107 54.8706 53.5323 55.6515C53.254 56.4323 52.8851 57.0807 52.4328 57.5757C51.9805 58.0707 51.4656 58.4402 50.888 58.6702C49.6493 59.1722 48.1949 59.1304 47.1024 58.6005C46.5179 58.3147 46.0099 57.9033 45.5854 57.3735C45.1539 56.8367 44.813 56.1813 44.5764 55.4144C44.3328 54.6475 44.2145 53.7761 44.2145 52.8279C44.2145 51.8309 44.3467 50.9455 44.6112 50.1856C44.8756 49.4327 45.2305 48.7843 45.6759 48.2684C46.1143 47.7594 46.6292 47.3621 47.2137 47.0971C47.7983 46.8322 48.4315 46.6997 49.0996 46.6997C49.8998 46.6997 50.6096 46.8671 51.2081 47.2087C51.8135 47.5503 52.3215 48.0035 52.7251 48.5612C53.1287 49.1259 53.4418 49.7813 53.6437 50.5133C53.8455 51.2453 53.9498 52.0122 53.9498 52.793ZM62.9048 42.0976H68.7293V63.5636H62.9048V42.0976ZM90.2814 43.5902C90.9285 44.2804 91.4226 45.1519 91.7566 46.1907C92.0837 47.2155 92.2507 48.4426 92.2368 49.8369V63.5573H86.454V50.9106C86.454 50.2901 86.4123 49.7254 86.3218 49.2304C86.2383 48.7563 86.0852 48.3519 85.8625 48.0173C85.6468 47.6896 85.3615 47.4456 84.9788 47.2643C84.5891 47.0761 84.0881 46.9855 83.4757 46.9855C82.8285 46.9855 82.2161 47.0831 81.6525 47.2783C81.0958 47.4735 80.5878 47.7454 80.1494 48.1009C79.711 48.4635 79.3213 48.8888 78.9942 49.3768C78.6672 49.8648 78.4027 50.4156 78.2149 51.0082C78.0757 51.4195 77.9783 51.8448 77.9295 52.284C77.8808 52.7372 77.853 53.2043 77.853 53.6853V63.5573H72.0285V42.0913H77.6581V44.8103V45.1101C77.7031 45.0518 77.748 44.9925 77.7937 44.9322C77.8683 44.8338 77.945 44.7328 78.027 44.629C78.4515 44.1061 78.9803 43.6111 79.6066 43.1649C80.2329 42.7118 80.9775 42.3353 81.8195 42.0425C82.6685 41.7497 83.6427 41.5963 84.7213 41.5963C85.9113 41.5963 86.976 41.7567 87.8945 42.0704C88.827 42.3911 89.6342 42.907 90.2814 43.5902ZM111.701 46.5811C111.297 45.5075 110.699 44.5942 109.934 43.8482C109.168 43.1092 108.208 42.5375 107.094 42.161C105.988 41.7845 104.721 41.5963 103.33 41.5963C102.063 41.5963 100.901 41.7357 99.892 42.0146C98.8899 42.2935 98.0201 42.5933 97.2894 42.9209C96.4474 43.2974 95.6819 43.7436 95.0069 44.2316L94.7773 44.3989L97.0319 48.6866L97.3381 48.4704C97.8531 48.1079 98.4167 47.7872 99.0221 47.5014C99.5371 47.2574 100.136 47.0343 100.797 46.8321C101.938 46.4905 103.295 46.4417 104.373 46.7136C104.819 46.8251 105.208 47.0134 105.529 47.2713C105.842 47.5223 106.092 47.8639 106.266 48.2822C106.447 48.7075 106.538 49.2304 106.538 49.8509H106.169C105.591 49.8509 104.895 49.8718 104.06 49.9136C103.225 49.9554 102.335 50.053 101.416 50.2204C100.49 50.3807 99.551 50.6177 98.6325 50.9175C97.693 51.2243 96.844 51.6565 96.0925 52.2003C95.334 52.7511 94.7147 53.4413 94.2415 54.257C93.7613 55.0797 93.5178 56.0836 93.5178 57.2409C93.5178 58.3215 93.7196 59.3045 94.1232 60.1551C94.5268 61.0057 95.0765 61.7307 95.7585 62.3094C96.4335 62.888 97.2337 63.3272 98.1245 63.627C99.0082 63.9198 99.9477 64.0732 100.901 64.0732C101.708 64.0732 102.453 63.9756 103.1 63.7944C103.747 63.6061 104.325 63.3621 104.812 63.0693C105.292 62.7765 105.716 62.4697 106.064 62.142C106.398 61.8283 106.677 61.5216 106.893 61.2357V61.5355V63.5782H112.32V50.2204C112.313 48.8678 112.105 47.6478 111.701 46.5811ZM99.377 56.9969C99.377 56.5716 99.4675 56.2091 99.6554 55.9163C99.8502 55.6095 100.115 55.3446 100.435 55.1215C100.769 54.8914 101.165 54.7102 101.611 54.5777C102.07 54.4383 102.557 54.3267 103.058 54.25C103.559 54.1733 104.067 54.1176 104.568 54.0966C105.076 54.0688 105.549 54.0548 105.995 54.0548H106.565V54.2082C106.565 54.8078 106.454 55.4143 106.238 56.0209C106.016 56.6274 105.71 57.1921 105.313 57.6941C104.923 58.1891 104.45 58.6004 103.914 58.9072C103.392 59.2069 102.815 59.3603 102.195 59.3603C101.708 59.3603 101.284 59.2906 100.929 59.1512C100.581 59.0117 100.289 58.8374 100.059 58.6213C99.8363 58.4052 99.6624 58.1612 99.551 57.8753C99.4327 57.5965 99.377 57.2967 99.377 56.9969ZM35.1155 89.563L35.1156 89.5631C35.2203 89.7401 35.3417 89.9454 35.4747 90.1738L41.7028 101.489H35.085L29.3301 90.6618H24.8139V101.489H18.885V71.8451H28.5438C29.3232 71.8451 30.026 71.859 30.6245 71.9009C31.2229 71.9357 31.7587 71.9845 32.218 72.0542C32.6843 72.124 33.1018 72.2076 33.4636 72.3122C33.8255 72.4168 34.1804 72.5423 34.5144 72.6956C36.0245 73.3719 37.2423 74.4177 38.1191 75.819C38.9959 77.2133 39.4412 78.9284 39.4412 80.9084C39.4412 81.8007 39.3229 82.6792 39.0933 83.5297C38.8567 84.3803 38.5227 85.1751 38.0912 85.8932C37.6598 86.6112 37.124 87.2596 36.4977 87.8243C35.9618 88.2984 35.3634 88.6888 34.7093 88.9886C34.7162 88.9956 34.7232 89.0043 34.7301 89.013L34.7377 89.0224C34.7422 89.0278 34.7466 89.033 34.751 89.0374C34.8484 89.142 34.9598 89.3023 35.085 89.5115L35.1155 89.563ZM28.4672 77.0251H24.8139V85.44H29.2049C30.5131 85.44 31.5569 85.0705 32.3085 84.3385C33.06 83.6064 33.4358 82.5537 33.4358 81.2012C33.4358 80.5458 33.3593 79.9463 33.1992 79.4234C33.0461 78.9214 32.7886 78.4892 32.4268 78.1406C32.058 77.785 31.5639 77.5061 30.9376 77.3179C30.2974 77.1227 29.4624 77.0251 28.4672 77.0251ZM59.8451 85.7536C59.4345 84.5126 58.8221 83.425 58.0219 82.5048C57.2216 81.5845 56.2126 80.8455 55.0226 80.3156C53.8396 79.7858 52.4548 79.5209 50.917 79.5209C49.3304 79.5209 47.8551 79.7997 46.5329 80.3435C45.2108 80.8873 44.0556 81.6682 43.0883 82.6581C42.128 83.6481 41.3695 84.8473 40.8407 86.2137C40.3118 87.5802 40.0404 89.107 40.0404 90.7454C40.0404 92.2583 40.3118 93.7084 40.8407 95.0609C41.3695 96.4204 42.142 97.6265 43.1301 98.6513C44.1182 99.6762 45.336 100.499 46.7487 101.091C48.1613 101.684 49.7688 101.984 51.5293 101.984C52.8515 101.984 54.0554 101.823 55.1061 101.51C56.143 101.196 57.0476 100.84 57.7922 100.45C58.6412 100.004 59.4206 99.488 60.0956 98.9163L60.2974 98.742L57.9732 94.4544L57.667 94.6984C57.152 95.1097 56.5814 95.4792 55.9621 95.7999C55.4402 96.0788 54.8139 96.3367 54.118 96.5668C52.8028 96.9921 51.1744 97.0269 49.7479 96.5668C49.0729 96.3507 48.4605 96.016 47.9317 95.5838C47.4028 95.1515 46.9574 94.6077 46.6095 93.9594C46.3103 93.4016 46.1084 92.7602 46.011 92.0491H60.3043L60.3183 91.7354C60.3322 91.4635 60.3531 91.2125 60.3809 90.9615L60.4226 90.2992C60.4366 90.0691 60.4435 89.8739 60.4435 89.7205C60.4574 88.3262 60.2487 86.9876 59.8451 85.7536ZM50.7987 84.185C51.3275 84.185 51.8216 84.2686 52.2739 84.4429C52.7193 84.6102 53.1159 84.8682 53.4569 85.1959C53.7909 85.5305 54.0623 85.9488 54.2572 86.4368C54.4172 86.8482 54.5286 87.3292 54.5703 87.8521H46.2267C46.4912 86.7575 46.9922 85.8791 47.7229 85.2447C48.5231 84.5405 49.56 84.185 50.7987 84.185ZM78.2702 81.7727C79.0357 82.5187 79.6342 83.432 80.0378 84.5057C80.4414 85.5723 80.6432 86.7924 80.6571 88.1449V101.503H75.2292V99.4601V99.1603C75.0135 99.4461 74.7352 99.7529 74.4012 100.067C74.0532 100.394 73.6287 100.701 73.1486 100.994C72.6615 101.287 72.0839 101.531 71.4367 101.719C70.7896 101.9 70.045 101.998 69.2378 101.998C68.2844 101.998 67.345 101.844 66.4612 101.552C65.5705 101.252 64.7772 100.813 64.0952 100.234C63.4133 99.6553 62.8635 98.9302 62.4599 98.0797C62.0493 97.2291 61.8475 96.2461 61.8475 95.1655C61.8475 94.0082 62.0911 93.0042 62.5712 92.1816C63.0444 91.3659 63.6638 90.6757 64.4223 90.1249C65.1738 89.5811 66.0228 89.1488 66.9622 88.8421C67.8808 88.5423 68.8202 88.3053 69.7457 88.1449C70.6713 87.9776 71.562 87.88 72.397 87.8382C73.2182 87.7963 73.921 87.7754 74.4986 87.7754H74.8674C74.8674 87.1549 74.7769 86.632 74.596 86.2068C74.422 85.7885 74.1715 85.4468 73.8584 85.1959C73.5452 84.9379 73.1555 84.7497 72.7102 84.6381C71.6316 84.3662 70.2677 84.415 69.1334 84.7566C68.4723 84.9588 67.8738 85.1819 67.3589 85.4259C66.7535 85.7118 66.1898 86.0325 65.6749 86.395L65.3687 86.6111L63.114 82.3235L63.3437 82.1562C64.0187 81.6682 64.7841 81.222 65.6261 80.8455C66.3498 80.5178 67.2267 80.218 68.2287 79.9392C69.2377 79.6603 70.3929 79.5209 71.6664 79.5209C73.0581 79.5209 74.3246 79.7091 75.4311 80.0856C76.5514 80.462 77.5048 81.0337 78.2702 81.7727ZM67.9852 93.8408C67.7973 94.1337 67.7068 94.4962 67.7068 94.9215C67.7068 95.2212 67.7694 95.521 67.8877 95.7999C67.9991 96.0857 68.1731 96.3298 68.3957 96.5459C68.6254 96.762 68.9176 96.9363 69.2656 97.0757C69.6205 97.2152 70.045 97.2849 70.5321 97.2849C71.1514 97.2849 71.729 97.1315 72.2509 96.8317C72.7867 96.525 73.2599 96.1136 73.6496 95.6186C74.0463 95.1167 74.3525 94.552 74.5751 93.9454C74.7909 93.3389 74.9022 92.7323 74.9022 92.1328V91.9794H74.3316C73.8862 91.9794 73.413 91.9933 72.905 92.0212C72.404 92.0421 71.896 92.0979 71.395 92.1746C70.8939 92.2513 70.4068 92.3628 69.9475 92.5023C69.5022 92.6347 69.1055 92.823 68.7715 93.0461C68.4445 93.2692 68.18 93.5341 67.9852 93.8408ZM89.1265 71.8451H83.3368V101.489H89.1265V71.8451ZM104.263 96.4626C104.367 96.4556 104.45 96.4486 104.52 96.4347L105.153 96.3301V101.503L104.896 101.559C104.764 101.594 104.61 101.615 104.436 101.629C104.158 101.67 103.761 101.691 103.253 101.691C102.759 101.691 102.189 101.657 101.569 101.587C100.936 101.524 100.282 101.385 99.628 101.189C98.9669 100.994 98.3128 100.708 97.6725 100.346C97.0254 99.9763 96.4408 99.4813 95.9398 98.8748C95.4388 98.2682 95.0352 97.5153 94.729 96.6368C94.4228 95.7654 94.2697 94.7196 94.2697 93.5274V84.7988H91.5836V80.0162H94.4089V74.3342H100.115V80.0162H104.833V84.7988H100.115V92.8721C100.115 93.6739 100.247 94.3153 100.512 94.7754C100.783 95.2355 101.103 95.5981 101.486 95.849C101.876 96.107 102.286 96.2743 102.711 96.351C103.337 96.4626 103.894 96.4835 104.263 96.4626ZM122.126 80.0223L117.972 92.3275C117.875 92.6133 117.791 92.9201 117.708 93.2477L117.548 93.8752C117.492 93.6521 117.429 93.4151 117.36 93.171C117.262 92.8364 117.165 92.5227 117.054 92.2438L112.6 80.0293H106.066L114.959 100.854L114.235 102.562C113.873 103.42 113.4 104.054 112.809 104.451C112.217 104.856 111.605 105.051 110.951 105.051C110.679 105.051 110.422 105.009 110.185 104.939C109.928 104.856 109.691 104.765 109.489 104.674C109.253 104.549 109.023 104.41 108.807 104.256L108.48 104.026L106.497 108.509L106.72 108.662C107.102 108.927 107.534 109.164 108 109.366C108.397 109.548 108.87 109.708 109.399 109.854C109.942 110.001 110.554 110.078 111.215 110.078C112.022 110.078 112.823 109.966 113.595 109.743C114.367 109.52 115.105 109.178 115.78 108.725C116.455 108.272 117.074 107.679 117.624 106.968C118.167 106.264 118.64 105.413 119.023 104.444L128.487 80.0363H122.126V80.0223ZM125.543 97.6333C125.474 97.8843 125.439 98.1492 125.439 98.4281C125.439 98.707 125.474 98.9719 125.543 99.2298C125.613 99.4808 125.71 99.7179 125.836 99.941C125.954 100.157 126.107 100.359 126.281 100.541C126.455 100.722 126.65 100.882 126.866 101.008C127.074 101.14 127.311 101.238 127.555 101.307C127.805 101.377 128.063 101.412 128.327 101.412C128.598 101.412 128.856 101.377 129.106 101.307C129.357 101.238 129.587 101.133 129.802 101.008C130.018 100.875 130.213 100.722 130.394 100.541C130.568 100.359 130.721 100.164 130.846 99.941C130.971 99.7248 131.069 99.4878 131.138 99.2298C131.208 98.9789 131.243 98.7139 131.243 98.4351C131.243 98.0168 131.166 97.6333 131.013 97.2708C130.86 96.9082 130.658 96.5945 130.394 96.3226C130.129 96.0507 129.823 95.8416 129.468 95.6882C129.113 95.5348 128.731 95.4581 128.327 95.4581C128.056 95.4581 127.798 95.493 127.555 95.5627C127.311 95.6324 127.081 95.737 126.866 95.8625C126.65 95.988 126.455 96.1413 126.281 96.3226C126.107 96.5039 125.961 96.6991 125.836 96.9222C125.71 97.1383 125.613 97.3753 125.543 97.6333ZM126.205 99.3762C126.086 99.0834 126.031 98.7697 126.031 98.4281C126.031 98.0865 126.093 97.7727 126.205 97.4799C126.323 97.1871 126.483 96.9292 126.692 96.713C126.9 96.4899 127.144 96.3226 127.422 96.1971C127.701 96.0716 128.007 96.0089 128.327 96.0089C128.654 96.0089 128.953 96.0716 129.239 96.1971C129.524 96.3226 129.767 96.4969 129.976 96.713C130.178 96.9292 130.345 97.1871 130.463 97.4799C130.582 97.7727 130.644 98.0934 130.644 98.4281C130.644 98.7627 130.582 99.0834 130.463 99.3762C130.345 99.6691 130.185 99.927 129.976 100.143C129.767 100.366 129.524 100.534 129.239 100.659C128.953 100.785 128.654 100.847 128.327 100.847C128 100.847 127.701 100.785 127.422 100.659C127.144 100.534 126.9 100.359 126.692 100.143C126.483 99.927 126.323 99.6691 126.205 99.3762ZM128.522 96.8804H127.346V99.9479H127.923V98.7558H128.417L128.988 99.9479H129.621L129.037 98.8115C129.016 98.7767 129.002 98.7488 128.988 98.7279C128.982 98.7187 128.976 98.7109 128.97 98.7038C128.963 98.6948 128.957 98.6869 128.953 98.6791L128.932 98.6442V98.6303C128.995 98.6093 129.058 98.5815 129.127 98.5396C129.197 98.4978 129.252 98.442 129.308 98.3723C129.364 98.3026 129.406 98.2189 129.44 98.1283C129.475 98.0307 129.489 97.9261 129.489 97.8076C129.489 97.6682 129.468 97.5357 129.42 97.4242C129.378 97.3126 129.308 97.215 129.225 97.1313C129.141 97.0477 129.037 96.9849 128.918 96.9431C128.793 96.9013 128.668 96.8804 128.522 96.8804ZM128.765 98.198C128.675 98.2886 128.557 98.3375 128.404 98.3375H127.916V97.3196H128.404C128.557 97.3196 128.675 97.3614 128.765 97.4451C128.856 97.5357 128.898 97.6542 128.898 97.8146C128.898 97.9749 128.856 98.1074 128.765 98.198Z" fill="white"/>
</g>
</svg>
