<svg width="217" height="60" viewBox="0 0 217 60" fill="none" xmlns="http://www.w3.org/2000/svg">
<path d="M208.147 59.674H8.00564C3.52248 59.674 0 56.3919 0 52.2147V7.45925C0 3.28207 3.52248 0 8.00564 0H208.147C212.63 0 216.152 3.28207 216.152 7.45925V52.2147C216.152 56.2427 212.47 59.674 208.147 59.674Z" fill="black"/>
<path d="M208.147 1.19348C211.829 1.19348 214.871 4.02799 214.871 7.45925V52.2147C214.871 55.646 211.829 58.4805 208.147 58.4805H8.00564C4.32305 58.4805 1.2809 55.646 1.2809 52.2147V7.45925C1.2809 4.02799 4.32305 1.19348 8.00564 1.19348H208.147ZM208.147 0H8.00564C3.52248 0 0 3.28207 0 7.45925V52.2147C0 56.3919 3.52248 59.674 8.00564 59.674H208.147C212.63 59.674 216.152 56.3919 216.152 52.2147V7.45925C216.152 3.28207 212.47 0 208.147 0Z" fill="#A7A6A6"/>
<path d="M75.8935 15.2168C75.8935 16.4103 75.5733 17.4546 74.7727 18.2005C73.8121 19.0956 72.6913 19.5432 71.2502 19.5432C69.8092 19.5432 68.6884 19.0956 67.7278 18.2005C66.7671 17.3054 66.2867 16.2611 66.2867 14.9184C66.2867 13.5758 66.7671 12.5315 67.7278 11.6364C68.6884 10.7413 69.8092 10.2937 71.2502 10.2937C71.8907 10.2937 72.5312 10.4429 73.1716 10.7413C73.8121 11.0396 74.2924 11.338 74.6126 11.7856L73.8121 12.5315C73.1716 11.7856 72.371 11.4872 71.2502 11.4872C70.2896 11.4872 69.3289 11.7856 68.6884 12.5315C67.8879 13.1282 67.5677 14.0233 67.5677 15.0676C67.5677 16.1119 67.8879 17.007 68.6884 17.6038C69.489 18.2005 70.2896 18.6481 71.2502 18.6481C72.371 18.6481 73.1716 18.3497 73.9722 17.6038C74.4525 17.1562 74.7727 16.5595 74.7727 15.8135H71.2502V14.7692H75.8935C75.8935 14.7692 75.8935 15.0676 75.8935 15.2168Z" fill="white" stroke="white" stroke-width="0.320226" stroke-miterlimit="10"/>
<path d="M83.2587 11.4872H78.9357V14.3217H82.9385V15.366H78.9357V18.2005H83.2587V19.2448H77.6548V10.2937H83.2587V11.4872Z" fill="white" stroke="white" stroke-width="0.320226" stroke-miterlimit="10"/>
<path d="M88.5426 19.394H87.2617V11.4872H84.5397V10.4429H91.1044V11.4872H88.3824V19.394H88.5426Z" fill="white" stroke="white" stroke-width="0.320226" stroke-miterlimit="10"/>
<path d="M95.9077 19.394V10.4429H97.1886V19.394H95.9077Z" fill="white" stroke="white" stroke-width="0.320226" stroke-miterlimit="10"/>
<path d="M102.632 19.394H101.351V11.4872H98.6296V10.4429H105.354V11.4872H102.632V19.394Z" fill="white" stroke="white" stroke-width="0.320226" stroke-miterlimit="10"/>
<path d="M117.843 18.2005C116.882 19.0956 115.762 19.5432 114.321 19.5432C112.88 19.5432 111.759 19.0956 110.798 18.2005C109.837 17.3054 109.357 16.2611 109.357 14.9184C109.357 13.5758 109.837 12.5315 110.798 11.6364C111.759 10.7413 112.88 10.2937 114.321 10.2937C115.762 10.2937 116.882 10.7413 117.843 11.6364C118.804 12.5315 119.284 13.5758 119.284 14.9184C119.284 16.2611 118.804 17.3054 117.843 18.2005ZM111.759 17.4546C112.399 18.0513 113.36 18.4989 114.321 18.4989C115.281 18.4989 116.242 18.2005 116.882 17.4546C117.523 16.8578 118.003 15.9627 118.003 14.9184C118.003 13.8741 117.683 12.979 116.882 12.3823C116.242 11.7856 115.281 11.338 114.321 11.338C113.36 11.338 112.399 11.6364 111.759 12.3823C111.118 12.979 110.638 13.8741 110.638 14.9184C110.638 15.9627 110.958 16.7087 111.759 17.4546Z" fill="white" stroke="white" stroke-width="0.320226" stroke-miterlimit="10"/>
<path d="M121.045 19.394V10.4429H122.486L127.13 17.4546V15.6643V10.4429H128.41V19.394H127.13L122.166 12.0839V13.8741V19.394H121.045Z" fill="white" stroke="white" stroke-width="0.320226" stroke-miterlimit="10"/>
<path d="M109.037 32.373C105.194 32.373 102.152 35.0583 102.152 38.788C102.152 42.3684 105.194 45.2029 109.037 45.2029C112.879 45.2029 115.922 42.5176 115.922 38.788C115.922 35.0583 112.879 32.373 109.037 32.373ZM109.037 42.6668C106.955 42.6668 105.194 41.0257 105.194 38.788C105.194 36.5502 106.955 34.9092 109.037 34.9092C111.118 34.9092 112.879 36.401 112.879 38.788C112.879 41.0257 111.118 42.6668 109.037 42.6668ZM94.1463 32.373C90.3036 32.373 87.2614 35.0583 87.2614 38.788C87.2614 42.3684 90.3036 45.2029 94.1463 45.2029C97.989 45.2029 101.031 42.5176 101.031 38.788C101.031 35.0583 97.989 32.373 94.1463 32.373ZM94.1463 42.6668C92.0648 42.6668 90.3036 41.0257 90.3036 38.788C90.3036 36.5502 92.0648 34.9092 94.1463 34.9092C96.2277 34.9092 97.989 36.401 97.989 38.788C97.989 41.0257 96.2277 42.6668 94.1463 42.6668ZM76.3738 34.3124V36.9978H83.2586C83.0985 38.4896 82.458 39.6831 81.6575 40.429C80.6968 41.3241 79.0957 42.3684 76.3738 42.3684C72.0507 42.3684 68.8485 39.2355 68.8485 35.2075C68.8485 31.1795 72.2108 28.0467 76.3738 28.0467C78.6153 28.0467 80.3766 28.9418 81.6575 29.9861L83.7389 28.0467C81.9777 26.5548 79.7361 25.3613 76.5339 25.3613C70.7698 25.3613 65.8063 29.8369 65.8063 35.2075C65.8063 40.5782 70.7698 45.0537 76.5339 45.0537C79.7361 45.0537 81.9777 44.1586 83.8991 42.2192C85.8204 40.429 86.4609 37.8929 86.4609 35.9535C86.4609 35.3567 86.4609 34.76 86.3007 34.3124H76.3738ZM148.905 36.401C148.264 34.9092 146.663 32.373 143.141 32.373C139.618 32.373 136.736 34.9092 136.736 38.788C136.736 42.3684 139.618 45.2029 143.461 45.2029C146.503 45.2029 148.425 43.4127 149.065 42.3684L146.823 40.8766C146.023 41.9209 145.062 42.6668 143.461 42.6668C141.86 42.6668 140.899 42.07 140.099 40.7274L149.225 37.1469L148.905 36.401ZM139.618 38.6388C139.618 36.2518 141.7 34.9092 143.141 34.9092C144.262 34.9092 145.382 35.5059 145.703 36.2518L139.618 38.6388ZM132.253 44.7554H135.295V26.1073H132.253V44.7554ZM127.45 33.8649C126.649 33.1189 125.368 32.373 123.767 32.373C120.405 32.373 117.203 35.2075 117.203 38.788C117.203 42.3684 120.245 45.0537 123.767 45.0537C125.368 45.0537 126.649 44.3078 127.29 43.5619H127.45V44.457C127.45 46.844 126.009 48.1866 123.767 48.1866C122.006 48.1866 120.725 46.9931 120.405 45.9488L117.843 46.9931C118.644 48.6342 120.565 50.7228 123.927 50.7228C127.45 50.7228 130.332 48.7834 130.332 44.1586V32.8206H127.45V33.8649ZM123.927 42.6668C121.846 42.6668 120.085 41.0257 120.085 38.788C120.085 36.5502 121.846 34.9092 123.927 34.9092C126.009 34.9092 127.61 36.5502 127.61 38.788C127.61 41.0257 126.009 42.6668 123.927 42.6668ZM162.995 26.1073H155.79V44.7554H158.832V37.7437H162.995C166.357 37.7437 169.559 35.5059 169.559 31.9255C169.559 28.345 166.357 26.1073 162.995 26.1073ZM162.995 35.0583H158.672V28.6434H162.995C165.236 28.6434 166.517 30.4336 166.517 31.7763C166.517 33.2681 165.236 35.0583 162.995 35.0583ZM181.568 32.373C179.326 32.373 177.085 33.2681 176.284 35.2075L179.006 36.2518C179.647 35.2075 180.607 34.9092 181.728 34.9092C183.329 34.9092 184.77 35.8043 184.93 37.2961V37.4453C184.45 37.1469 183.169 36.6994 181.888 36.6994C179.006 36.6994 176.124 38.1912 176.124 40.8766C176.124 43.4127 178.526 45.0537 181.088 45.0537C183.169 45.0537 184.13 44.1586 184.93 43.2635H185.09V44.7554H187.972V37.5945C187.652 34.1632 184.93 32.373 181.568 32.373ZM181.088 42.6668C180.127 42.6668 178.686 42.2192 178.686 41.0257C178.686 39.5339 180.447 39.0863 181.888 39.0863C183.169 39.0863 183.809 39.3847 184.61 39.6831C184.45 41.3241 182.849 42.6668 181.088 42.6668ZM198.06 32.8206L194.697 40.8766H194.537L191.015 32.8206H187.812L193.096 44.1586L190.054 50.4244H193.096L201.262 32.8206H198.06ZM171.161 44.7554H174.203V26.1073H171.161V44.7554Z" fill="white"/>
<path d="M16.6516 11.189C16.1713 11.6365 15.8511 12.3824 15.8511 13.2776V46.2474C15.8511 47.1425 16.1713 47.8885 16.6516 48.336L16.8118 48.4852L36.6657 29.9863V29.8371V29.6879L16.6516 11.189Z" fill="url(#paint0_linear_445_4837)"/>
<path d="M43.2305 36.2517L36.6659 30.1352V29.986V29.8368L43.2305 23.7202L43.3906 23.8694L51.2362 28.0466C53.4777 29.2401 53.4777 31.1795 51.2362 32.3729L43.2305 36.2517Z" fill="url(#paint1_linear_445_4837)"/>
<path d="M43.3906 36.1027L36.6659 29.8369L16.6518 48.3358C17.4524 49.0818 18.5731 49.0818 20.0142 48.485L43.3906 36.1027Z" fill="url(#paint2_linear_445_4837)"/>
<path d="M43.3906 23.5708L20.0142 11.1884C18.5731 10.4425 17.4524 10.5917 16.6518 11.3376L36.6659 29.9857L43.3906 23.5708Z" fill="url(#paint3_linear_445_4837)"/>
<path opacity="0.2" d="M43.2304 35.9534L20.014 48.1865C18.7331 48.9325 17.6123 48.7833 16.8118 48.1865L16.6517 48.3357L16.8118 48.4849C17.6123 49.0816 18.7331 49.2308 20.014 48.4849L43.2304 35.9534Z" fill="#010101"/>
<path opacity="0.12" d="M16.6515 48.1867C16.1712 47.7392 15.851 46.9933 15.851 46.0981V46.2473C15.851 47.1424 16.1712 47.8884 16.6515 48.3359V48.1867Z" fill="#010101"/>
<path opacity="0.12" d="M51.2361 31.7763L43.2304 35.9535L43.3905 36.1027L51.2361 31.9255C52.3569 31.3288 52.8372 30.5828 52.8372 29.8369C52.8372 30.4337 52.1968 31.1796 51.2361 31.7763Z" fill="#010101"/>
<path opacity="0.25" d="M20.014 11.3379L51.236 27.8975C52.1967 28.4942 52.8371 29.0909 52.8371 29.8369C52.8371 29.0909 52.3568 28.345 51.236 27.7483L20.014 11.1888C17.7724 9.99528 16.0112 11.0396 16.0112 13.4265V13.5757C16.0112 11.1888 17.7724 10.1445 20.014 11.3379Z" fill="white"/>
<defs>
<linearGradient id="paint0_linear_445_4837" x1="34.8795" y1="12.9553" x2="9.90515" y2="39.7591" gradientUnits="userSpaceOnUse">
<stop stop-color="#4998D3"/>
<stop offset="0.00657445" stop-color="#4A99D3"/>
<stop offset="0.2601" stop-color="#42BAEB"/>
<stop offset="0.5122" stop-color="#41C7F2"/>
<stop offset="0.7604" stop-color="#56C9E9"/>
<stop offset="1" stop-color="#5BCAE8"/>
</linearGradient>
<linearGradient id="paint1_linear_445_4837" x1="54.1486" y1="29.8005" x2="15.4064" y2="29.8005" gradientUnits="userSpaceOnUse">
<stop stop-color="#FEE000"/>
<stop offset="0.4087" stop-color="#FEBD11"/>
<stop offset="0.7754" stop-color="#FAA51A"/>
<stop offset="1" stop-color="#F99C1C"/>
</linearGradient>
<linearGradient id="paint2_linear_445_4837" x1="39.7266" y1="33.224" x2="5.85933" y2="69.5721" gradientUnits="userSpaceOnUse">
<stop stop-color="#EF4049"/>
<stop offset="1" stop-color="#C31E63"/>
</linearGradient>
<linearGradient id="paint3_linear_445_4837" x1="11.6595" y1="0.224063" x2="26.7826" y2="16.455" gradientUnits="userSpaceOnUse">
<stop stop-color="#32A072"/>
<stop offset="0.0685" stop-color="#2DA771"/>
<stop offset="0.4762" stop-color="#4BBA71"/>
<stop offset="0.8009" stop-color="#5EBD6B"/>
<stop offset="1" stop-color="#66BE69"/>
</linearGradient>
</defs>
</svg>
