<svg width="210" height="38" viewBox="0 0 210 38" fill="none" xmlns="http://www.w3.org/2000/svg">
<path d="M5.83115 24.0606V17.0324H15.3992V11.924H5.83115V5.09463H17.6919V0H0V29.1552H18.3147V24.0606H5.83115Z" fill="white"/>
<path d="M34.3295 0V9.61328C34.0899 9.36643 33.823 9.14016 33.5219 8.9276C33.0428 8.58475 32.4063 8.26934 31.6329 7.98821C30.8527 7.70022 29.8671 7.55623 28.7173 7.55623C27.3211 7.55623 26.0208 7.82365 24.8504 8.35162C23.6801 8.8796 22.6535 9.63385 21.8117 10.5869C20.9698 11.54 20.3128 12.7194 19.8406 14.0771C19.3752 15.4347 19.1356 16.9569 19.1356 18.6026C19.1356 20.2071 19.3546 21.7019 19.7858 23.0458C20.217 24.3898 20.8535 25.5691 21.6679 26.5428C22.4824 27.5233 23.4816 28.2913 24.6383 28.833C25.7949 29.3747 27.0953 29.6489 28.5188 29.6489C29.7166 29.6489 30.7568 29.457 31.6124 29.0798C32.4542 28.7096 33.1523 28.2844 33.6793 27.825C34.0215 27.5302 34.3295 27.2079 34.5964 26.8651C34.5964 26.9611 34.5964 27.0571 34.5964 27.1531V29.1621H40.0511V0H34.3295ZM34.4869 18.5614C34.4869 19.6585 34.35 20.6048 34.0762 21.3727C33.8025 22.1407 33.4397 22.7784 32.9949 23.2652C32.55 23.7521 32.0435 24.1155 31.4755 24.3418C30.2572 24.8354 28.8268 24.7943 27.7523 24.2732C27.1774 23.9921 26.6778 23.5875 26.2603 23.0664C25.836 22.5384 25.5006 21.8939 25.2679 21.1396C25.0284 20.3854 24.912 19.5283 24.912 18.5957C24.912 17.6152 25.0421 16.7444 25.3021 15.997C25.5622 15.2565 25.9112 14.6188 26.3493 14.1114C26.7804 13.6108 27.2869 13.22 27.8618 12.9594C28.4367 12.6989 29.0595 12.5686 29.7166 12.5686C30.5036 12.5686 31.2017 12.7331 31.7903 13.0691C32.3857 13.4051 32.8854 13.8508 33.2823 14.3993C33.6793 14.9548 33.9872 15.5993 34.1857 16.3193C34.3842 17.0392 34.4869 17.7935 34.4869 18.5614Z" fill="white"/>
<path d="M49.0241 8.04297H43.2957V29.1552H49.0241V8.04297Z" fill="white"/>
<path d="M48.983 0H43.2955V5.17005H48.983V0Z" fill="white"/>
<path d="M71.6708 12.0682C71.3423 11.0465 70.8564 10.1894 70.2199 9.51061C69.5834 8.83864 68.7895 8.33124 67.8724 8.01582C66.9689 7.70727 65.9218 7.54956 64.7515 7.54956C63.6906 7.54956 62.7325 7.70041 61.8975 7.9884C61.0694 8.27638 60.337 8.64665 59.7211 9.09235C59.1051 9.53118 58.585 10.018 58.1675 10.5323C58.0374 10.6968 57.9211 10.8546 57.8047 11.0054C57.8047 10.9094 57.8047 10.8134 57.8047 10.7106V8.0364H52.2679V29.1486H57.9964V19.4393C57.9964 18.9662 58.0237 18.5068 58.0717 18.0611C58.1196 17.6291 58.2154 17.2108 58.3523 16.8063C58.5371 16.2235 58.7971 15.6818 59.1188 15.2018C59.4405 14.7218 59.8237 14.3035 60.2549 13.947C60.6861 13.5973 61.1857 13.3299 61.7332 13.1379C62.2876 12.9459 62.8899 12.8499 63.5264 12.8499C64.1287 12.8499 64.6214 12.939 65.0047 13.1242C65.3811 13.3024 65.6617 13.5424 65.8739 13.8647C66.0929 14.1938 66.2435 14.5915 66.3256 15.0578C66.4146 15.5446 66.4556 16.1 66.4556 16.7103V29.1486H72.1431V15.6543C72.1568 14.283 71.9925 13.0762 71.6708 12.0682Z" fill="white"/>
<path d="M91.2858 12.4522C90.8889 11.3962 90.3003 10.498 89.5474 9.76432C88.7946 9.03749 87.8501 8.47523 86.7551 8.10496C85.6669 7.73469 84.4212 7.54956 83.0524 7.54956C81.8068 7.54956 80.6638 7.6867 79.6715 7.96097C78.6859 8.23524 77.8304 8.53009 77.1118 8.85236C76.2836 9.22263 75.5308 9.66147 74.8669 10.1414L74.6411 10.306L76.8585 14.523L77.1597 14.3104C77.6661 13.9538 78.2205 13.6384 78.8159 13.3573C79.3224 13.1173 79.911 12.8979 80.5612 12.699C81.6836 12.3631 83.0182 12.3151 84.079 12.5825C84.517 12.6922 84.9003 12.8773 85.2151 13.131C85.5231 13.3779 85.7695 13.7139 85.9406 14.1253C86.1186 14.5435 86.2075 15.0578 86.2075 15.668H85.8448C85.2767 15.668 84.5923 15.6886 83.771 15.7298C82.9498 15.7709 82.0737 15.8669 81.1703 16.0315C80.26 16.1892 79.3361 16.4223 78.4327 16.7171C77.5087 17.0188 76.6737 17.444 75.9346 17.9788C75.1886 18.5205 74.5795 19.1993 74.1141 20.0016C73.6418 20.8107 73.4023 21.7981 73.4023 22.9363C73.4023 23.9991 73.6008 24.9659 73.9977 25.8024C74.3947 26.639 74.9353 27.3521 75.6061 27.9212C76.2699 28.4903 77.057 28.9223 77.9331 29.2171C78.8023 29.5051 79.7262 29.656 80.6638 29.656C81.4577 29.656 82.1901 29.56 82.8266 29.3817C83.4631 29.1966 84.0311 28.9566 84.5102 28.6686C84.9824 28.3806 85.3999 28.0789 85.7421 27.7566C86.0706 27.4481 86.3444 27.1464 86.5566 26.8653C86.5566 26.9612 86.5566 27.0572 86.5566 27.1601V29.1691H91.895V16.0315C91.8881 14.7012 91.6828 13.5013 91.2858 12.4522ZM79.165 22.6963C79.165 22.278 79.254 21.9215 79.4388 21.6335C79.6304 21.3318 79.8905 21.0712 80.2053 20.8518C80.5338 20.6255 80.9239 20.4473 81.3619 20.317C81.8136 20.1798 82.2927 20.0701 82.7855 19.9947C83.2783 19.9193 83.7779 19.8644 84.2707 19.8439C84.7703 19.8164 85.2357 19.8027 85.6737 19.8027H86.2349V19.9536C86.2349 20.5433 86.1254 21.1398 85.9132 21.7363C85.6942 22.3329 85.3931 22.8883 85.003 23.382C84.6197 23.8688 84.1543 24.2734 83.6273 24.5751C83.114 24.8699 82.546 25.0208 81.9368 25.0208C81.4577 25.0208 81.0403 24.9522 80.6912 24.8151C80.349 24.6779 80.0616 24.5065 79.8357 24.2939C79.6167 24.0814 79.4456 23.8414 79.3361 23.5603C79.2197 23.286 79.165 22.9911 79.165 22.6963Z" fill="white"/>
<path d="M115.637 18.0266C115.493 17.7798 115.363 17.5603 115.254 17.3752C115.131 17.1695 115.021 17.0118 114.925 16.9089C114.912 16.8952 114.898 16.8747 114.884 16.8609C115.528 16.5661 116.116 16.1821 116.643 15.7159C117.259 15.1605 117.786 14.5228 118.21 13.8165C118.635 13.1103 118.963 12.3286 119.196 11.492C119.422 10.6555 119.538 9.79156 119.538 8.91388C119.538 6.96654 119.1 5.27976 118.238 3.90839C117.376 2.53017 116.178 1.50165 114.693 0.836533C114.364 0.685683 114.015 0.56226 113.659 0.459408C113.303 0.356555 112.893 0.274273 112.434 0.205705C111.982 0.137137 111.455 0.0891388 110.867 0.0548547C110.278 0.0137137 109.587 0 108.82 0H99.3209V29.1552H105.152V18.5066H109.594L115.254 29.1552H121.763L115.637 18.0266ZM105.152 5.09463H108.745C109.724 5.09463 110.545 5.19062 111.175 5.38261C111.791 5.56775 112.277 5.84202 112.639 6.19172C112.995 6.53456 113.249 6.95968 113.399 7.45338C113.557 7.96764 113.632 8.55733 113.632 9.20187C113.632 10.5321 113.262 11.5675 112.523 12.2874C111.784 13.0074 110.757 13.3708 109.471 13.3708H105.152V5.09463Z" fill="white"/>
<path d="M139.605 13.6796C139.201 12.4591 138.599 11.3894 137.812 10.4843C137.025 9.57918 136.032 8.85236 134.862 8.33124C133.699 7.81012 132.337 7.54956 130.824 7.54956C129.264 7.54956 127.813 7.82383 126.512 8.35867C125.212 8.8935 124.076 9.66146 123.125 10.6351C122.18 11.6088 121.434 12.7882 120.914 14.1321C120.394 15.4761 120.127 16.9777 120.127 18.5891C120.127 20.077 120.394 21.5032 120.914 22.8334C121.434 24.1705 122.194 25.3568 123.166 26.3647C124.137 27.3727 125.335 28.1818 126.725 28.7646C128.114 29.3474 129.695 29.6423 131.426 29.6423C132.727 29.6423 133.911 29.4846 134.944 29.176C135.964 28.8675 136.854 28.5178 137.586 28.1338C138.421 27.6949 139.188 27.1875 139.851 26.6253L140.05 26.4538L137.764 22.2369L137.463 22.4769C136.956 22.8814 136.395 23.2449 135.786 23.5603C135.273 23.8345 134.657 24.0882 133.972 24.3145C132.679 24.7328 131.077 24.7671 129.674 24.3145C129.01 24.102 128.408 23.7728 127.888 23.3477C127.368 22.9226 126.93 22.3877 126.588 21.7501C126.293 21.2015 126.095 20.5707 125.999 19.8713H140.057L140.07 19.5627C140.084 19.2953 140.105 19.0485 140.132 18.8016L140.173 18.1502C140.187 17.9239 140.194 17.732 140.194 17.5811C140.207 16.2097 140.002 14.8932 139.605 13.6796ZM130.708 12.1368C131.228 12.1368 131.714 12.2191 132.159 12.3905C132.597 12.555 132.987 12.8088 133.322 13.131C133.651 13.4601 133.918 13.8716 134.109 14.3515C134.267 14.7561 134.376 15.2292 134.417 15.7435H126.211C126.471 14.667 126.964 13.803 127.683 13.179C128.47 12.4865 129.49 12.1368 130.708 12.1368Z" fill="white"/>
<path d="M159.467 12.4522C159.07 11.3962 158.481 10.498 157.728 9.76432C156.975 9.03749 156.038 8.47523 154.936 8.10496C153.848 7.73469 152.602 7.54956 151.233 7.54956C149.981 7.54956 148.845 7.6867 147.852 7.96097C146.867 8.23524 146.004 8.53009 145.292 8.85236C144.464 9.22263 143.711 9.66147 143.048 10.1414L142.822 10.306L145.039 14.523L145.34 14.3104C145.847 13.9538 146.401 13.6384 146.997 13.3573C147.503 13.1173 148.092 12.8979 148.742 12.699C149.857 12.3631 151.199 12.3151 152.26 12.5825C152.698 12.6922 153.081 12.8773 153.389 13.131C153.697 13.3779 153.943 13.7139 154.114 14.1253C154.292 14.5435 154.381 15.0578 154.381 15.668H154.019C153.451 15.668 152.759 15.6886 151.952 15.7298C151.13 15.7709 150.254 15.8669 149.344 16.0315C148.434 16.1892 147.51 16.4223 146.606 16.7171C145.683 17.0188 144.848 17.444 144.108 17.9788C143.362 18.5205 142.753 19.1993 142.288 20.0016C141.816 20.8107 141.576 21.7981 141.576 22.9363C141.576 23.9991 141.775 24.9659 142.178 25.8024C142.575 26.639 143.116 27.3521 143.787 27.9212C144.457 28.4903 145.238 28.9223 146.114 29.2171C146.983 29.5051 147.907 29.656 148.845 29.656C149.638 29.656 150.371 29.56 151.007 29.3817C151.644 29.1966 152.212 28.9566 152.691 28.6686C153.163 28.3806 153.581 28.0789 153.923 27.7566C154.251 27.4481 154.525 27.1464 154.737 26.8653C154.737 26.9612 154.737 27.0572 154.737 27.1601V29.1691H160.076V16.0315C160.062 14.7012 159.863 13.5013 159.467 12.4522ZM147.339 22.6963C147.339 22.278 147.428 21.9215 147.613 21.6335C147.804 21.3318 148.064 21.0712 148.386 20.8518C148.714 20.6324 149.105 20.4473 149.543 20.317C149.994 20.1798 150.473 20.0701 150.966 19.9947C151.459 19.9193 151.959 19.8644 152.451 19.8439C152.951 19.8164 153.416 19.8027 153.854 19.8027H154.416V19.9536C154.416 20.5433 154.306 21.1398 154.094 21.7363C153.875 22.3329 153.574 22.8883 153.184 23.382C152.8 23.8688 152.335 24.2734 151.808 24.5751C151.295 24.8699 150.727 25.0208 150.117 25.0208C149.638 25.0208 149.221 24.9522 148.872 24.8151C148.53 24.6779 148.242 24.5065 148.016 24.2939C147.797 24.0814 147.626 23.8414 147.517 23.5603C147.4 23.286 147.339 22.9911 147.339 22.6963Z" fill="white"/>
<path d="M168.405 0H162.711V29.1552H168.405V0Z" fill="white"/>
<path d="M183.545 24.1842C183.476 24.1979 183.394 24.2047 183.291 24.2116C182.929 24.2322 182.381 24.2116 181.765 24.1019C181.348 24.0264 180.944 23.8619 180.561 23.6082C180.184 23.3613 179.869 23.0048 179.602 22.5522C179.342 22.0997 179.212 21.4689 179.212 20.6803V12.7401H183.853V8.03632H179.212V2.448H173.6V8.03632H170.821V12.7401H173.463V21.3249C173.463 22.4974 173.614 23.5259 173.915 24.383C174.216 25.247 174.613 25.9875 175.106 26.584C175.599 27.1806 176.174 27.6674 176.81 28.0308C177.44 28.3874 178.083 28.6685 178.733 28.8605C179.377 29.0525 180.02 29.1896 180.643 29.2514C181.252 29.3199 181.813 29.3542 182.299 29.3542C182.799 29.3542 183.189 29.3336 183.462 29.2925C183.634 29.2788 183.784 29.2582 183.914 29.2239L184.167 29.1691V24.0813L183.545 24.1842Z" fill="white"/>
<path d="M200.859 8.04321L196.773 20.1455C196.678 20.4267 196.595 20.7284 196.513 21.0506L196.356 21.6677C196.301 21.4483 196.24 21.2152 196.171 20.9752C196.075 20.6461 195.979 20.3375 195.87 20.0632L191.49 8.05007H185.063L193.81 28.5314L193.098 30.2113C192.742 31.0547 192.277 31.6787 191.695 32.0696C191.113 32.4673 190.511 32.6592 189.868 32.6592C189.601 32.6592 189.348 32.6181 189.115 32.5495C188.862 32.4672 188.629 32.3781 188.43 32.289C188.198 32.1655 187.972 32.0284 187.76 31.8776L187.438 31.6513L185.488 36.0602L185.707 36.2111C186.083 36.4716 186.507 36.7048 186.966 36.9036C187.356 37.0819 187.821 37.2396 188.341 37.3836C188.875 37.5276 189.478 37.603 190.128 37.603C190.922 37.603 191.709 37.4933 192.468 37.2739C193.228 37.0545 193.954 36.7185 194.617 36.2728C195.281 35.8271 195.89 35.2443 196.431 34.5449C196.965 33.8523 197.43 33.0158 197.807 32.0627L207.115 8.05693H200.859V8.04321Z" fill="white"/>
<path d="M204.117 26.1451C204.117 25.8709 204.151 25.6103 204.22 25.3635C204.288 25.1097 204.384 24.8766 204.507 24.6641C204.63 24.4446 204.774 24.2526 204.945 24.0744C205.116 23.8961 205.308 23.7452 205.52 23.6218C205.732 23.4984 205.958 23.3955 206.198 23.327C206.437 23.2584 206.69 23.2241 206.957 23.2241C207.354 23.2241 207.731 23.2995 208.08 23.4504C208.429 23.6012 208.73 23.807 208.99 24.0744C209.25 24.3418 209.449 24.6503 209.599 25.0069C209.75 25.3635 209.825 25.7406 209.825 26.152C209.825 26.4263 209.791 26.6868 209.722 26.9337C209.654 27.1874 209.558 27.4205 209.435 27.6331C209.312 27.8525 209.161 28.0445 208.99 28.2228C208.812 28.401 208.62 28.5519 208.408 28.6822C208.196 28.8056 207.97 28.9084 207.724 28.977C207.477 29.0456 207.224 29.0799 206.957 29.0799C206.697 29.0799 206.444 29.0456 206.198 28.977C205.958 28.9084 205.725 28.8124 205.52 28.6822C205.308 28.5587 205.116 28.401 204.945 28.2228C204.774 28.0445 204.624 27.8456 204.507 27.6331C204.384 27.4136 204.288 27.1805 204.22 26.9337C204.151 26.68 204.117 26.4194 204.117 26.1451ZM204.699 26.1451C204.699 26.4811 204.754 26.7897 204.87 27.0777C204.986 27.3656 205.144 27.6194 205.349 27.8319C205.554 28.0445 205.794 28.2159 206.068 28.3393C206.341 28.4627 206.636 28.5245 206.957 28.5245C207.279 28.5245 207.573 28.4627 207.854 28.3393C208.135 28.2159 208.374 28.0513 208.579 27.8319C208.785 27.6194 208.942 27.3656 209.058 27.0777C209.175 26.7897 209.236 26.4743 209.236 26.1451C209.236 25.816 209.175 25.5006 209.058 25.2126C208.942 24.9246 208.778 24.6709 208.579 24.4584C208.374 24.2458 208.135 24.0744 207.854 23.9509C207.573 23.8275 207.279 23.7658 206.957 23.7658C206.643 23.7658 206.341 23.8275 206.068 23.9509C205.794 24.0744 205.554 24.2389 205.349 24.4584C205.144 24.6709 204.986 24.9246 204.87 25.2126C204.76 25.5006 204.699 25.8091 204.699 26.1451ZM205.985 24.6229H207.149C207.293 24.6229 207.416 24.6435 207.539 24.6846C207.655 24.7258 207.758 24.7875 207.84 24.8698C207.922 24.952 207.991 25.048 208.032 25.1577C208.08 25.2675 208.1 25.3977 208.1 25.5349C208.1 25.6514 208.087 25.7543 208.052 25.8503C208.018 25.9394 207.977 26.0217 207.922 26.0903C207.868 26.1588 207.813 26.2137 207.744 26.2548C207.676 26.296 207.614 26.3234 207.553 26.344V26.3577L207.573 26.392C207.58 26.4057 207.594 26.4194 207.608 26.44C207.621 26.4605 207.635 26.488 207.655 26.5223L208.23 27.6399H207.608L207.046 26.4674H206.56V27.6399H205.992V24.6229H205.985ZM207.033 26.056C207.183 26.056 207.3 26.008 207.389 25.9189C207.477 25.8297 207.519 25.6994 207.519 25.5417C207.519 25.384 207.477 25.2675 207.389 25.1783C207.3 25.096 207.183 25.0549 207.033 25.0549H206.554V26.056H207.033Z" fill="white"/>
</svg>
