<svg width="13" height="13" viewBox="0 0 13 13" fill="none" xmlns="http://www.w3.org/2000/svg">
<path d="M9.01365 0H3.00455C2.20769 0 1.44348 0.31655 0.880013 0.880013C0.31655 1.44348 0 2.20769 0 3.00455L0 9.01365C0 9.81051 0.31655 10.5747 0.880013 11.1382C1.44348 11.7017 2.20769 12.0182 3.00455 12.0182H9.01365C9.81051 12.0182 10.5747 11.7017 11.1382 11.1382C11.7017 10.5747 12.0182 9.81051 12.0182 9.01365V3.00455C12.0182 2.20769 11.7017 1.44348 11.1382 0.880013C10.5747 0.31655 9.81051 0 9.01365 0V0ZM9.10754 5.72048H8.54419V3.87249L3.87249 8.54419H5.72048V9.10754H2.91066V6.29773H3.47401V8.1459L8.1459 3.47401H6.29773V2.91066H9.10754V5.72048Z" fill="#AAAAAA"/>
</svg>
